<svg width="272" height="273" viewBox="0 0 272 273" fill="none" xmlns="http://www.w3.org/2000/svg">
<path d="M272 136.5C272 211.887 211.111 273 136 273C60.8893 273 0 211.887 0 136.5C0 61.1131 60.8893 0 136 0C211.111 0 272 61.1131 272 136.5Z" fill="#D9D9D9"/>
<circle cx="136" cy="137" r="59" fill="#777777"/>
<rect x="211.568" y="112.054" width="8.35135" height="77.946" rx="4.17568" fill="#808080"/>
<path d="M206 103.703H225.486V105.095C225.486 110.476 221.124 114.838 215.743 114.838V114.838C210.362 114.838 206 110.476 206 105.095V103.703Z" fill="#808080"/>
<rect x="206" y="87" width="2.78378" height="16.7027" fill="#808080"/>
<rect x="211.568" y="87" width="2.78378" height="16.7027" fill="#808080"/>
<rect x="222.703" y="87" width="2.78378" height="16.7027" fill="#808080"/>
<rect x="217.135" y="87" width="2.78378" height="16.7027" fill="#808080"/>
<path d="M50 115.506C50.5 105.839 52.4 86.6061 56 87.0061C59.6 87.4061 53.5 106.173 50 115.506Z" fill="#7F7F7F"/>
<rect x="50.0676" y="112.06" width="8.35135" height="77.946" rx="4.17568" fill="#808080"/>
<ellipse cx="56" cy="116.006" rx="5.5" ry="29" fill="#7F7F7F"/>
</svg>
